<svg width="389" height="375" viewBox="0 0 389 375" fill="none" xmlns="http://www.w3.org/2000/svg">
<path d="M76 115.5C76 51.711 127.711 0 191.5 0C255.247 0 304.499 50.7499 305.999 115C305.999 135.5 298.999 152.75 281.499 169C266.711 182.731 241.5 184.749 223.001 174.5C209.798 166.883 199.622 150.663 191 138.75L175 163.25H140.5L173 114.998L141.5 67.4998H177L191.25 91.9997L205.25 67.4998H241L208.5 115C208.5 115 224 138.75 232.5 148C241 157.25 256.499 157.5 266.499 147.5C277.494 136.505 279.955 127.75 280 115C280.171 65.6469 240.97 25.9999 191.5 25.9999C142.07 25.9999 102 66.0703 102 115.5C102 164.929 142.07 204.999 191.5 204.999C198.337 204.999 204.89 204.425 211.25 202.999L216.75 228.249C207.7 230.279 200.388 230.999 191.5 230.999C127.711 230.999 76 179.288 76 115.5Z" fill="black"/>
<path d="M57.1788 331.564L87.2062 291.115H63.9666L45.0987 318.349L26.1159 291.115H1.61067L31.408 332.598L0 374.885H23.3547L43.4881 346.387L63.6214 374.885H88.2417L57.1788 331.564Z" fill="#010616"/>
<path d="M152.941 349.375H152.596L133.613 291.115H101.744V375H121.418V313.293H121.993L142.817 375H161.339L181.933 313.293H182.508V375H203.562V291.115H172.039L152.941 349.375Z" fill="#010616"/>
<path d="M218.204 291V308.696H247.772V374.885H268.94V308.696H298.508V291H218.204Z" fill="#010616"/>
<path d="M354.946 291H313.068V374.885H334.237V348.8H354.486C376 348.8 389 338.458 389 319.498C389 300.767 376 291.115 354.946 291.115V291ZM334.237 331.334V308.696H352.875C361.734 308.696 367.716 311.569 367.716 320.073C367.716 328.461 361.849 331.334 352.53 331.334H334.237Z" fill="#010616"/>
</svg>
