<svg width="352" height="352" viewBox="0 0 352 352" fill="none" xmlns="http://www.w3.org/2000/svg">
<path d="M56 174.737C56.0013 158.913 59.1197 143.245 65.1771 128.626C71.2345 114.007 80.1123 100.724 91.3036 89.5358C102.495 78.3475 115.781 69.4728 130.402 63.4185C145.024 57.3641 160.694 54.2487 176.52 54.25C243.04 54.25 294.43 107.244 296 174.237C296 195.625 288.7 213.623 270.43 230.571C255 244.9 228.7 247 209.43 236.311C195.66 228.362 185.04 211.443 176.04 199.015L159.34 224.572H123.34L157.26 174.237L124.39 124.693H161.39L176.26 150.25L190.87 124.693H228.17L194.26 174.237C194.26 174.237 210.43 199.015 219.26 208.664C228.09 218.313 244.26 218.573 254.74 208.144C266.21 196.675 268.74 187.536 268.83 174.237C268.943 162.056 266.635 149.974 262.04 138.692C257.445 127.41 250.655 117.153 242.063 108.516C233.472 99.8787 223.25 93.0339 211.992 88.3786C200.734 83.7234 188.663 81.3503 176.48 81.3972C163.423 81.5285 150.539 84.3965 138.659 89.8159C126.78 95.2354 116.169 103.086 107.512 112.86C98.8549 122.634 92.3444 134.116 88.4006 146.562C84.4568 159.009 83.1675 172.144 84.6159 185.119C86.0643 198.095 90.2181 210.623 96.8093 221.894C103.4 233.164 112.282 242.928 122.881 250.553C133.481 258.179 145.561 263.497 158.344 266.164C171.126 268.831 184.325 268.788 197.09 266.038L203.35 292.375C194.535 294.368 185.518 295.331 176.48 295.245C144.522 295.237 113.876 282.537 91.2824 259.938C68.6886 237.339 55.9973 206.692 56 174.737Z" fill="white"/>
<path d="M19.3221 138.736L21.6175 129.831L17.2525 128.706L14.9571 137.611L11.6978 136.771L14.5634 125.655L9.4708 124.343L5 141.686L26.2432 147.16L30.8716 129.206L25.7499 127.886L22.7269 139.613L19.3221 138.736Z" fill="#FC4F37"/>
<path d="M27.2445 107.831L20.7563 96.4127L17.8758 103.037L22.1285 109.709L14.3233 111.206L11.3588 118.023L24.4588 115.218L31.3118 127.156L34.1682 120.587L29.7836 113.463L37.9729 111.838L40.9493 104.994L27.2445 107.831Z" fill="#FC4F37"/>
<path d="M23.4436 91.8614L27.8918 94.706L31.8842 88.4635L45.8859 97.4177L49.3449 92.0092L35.3432 83.055L39.3356 76.8125L34.8874 73.9679L23.4436 91.8614Z" fill="#FC4F37"/>
<path d="M53.2093 72.51L59.2682 65.6251L55.8931 62.6552L49.8342 69.5401L47.3142 67.3225L54.8779 58.7276L50.9404 55.2627L39.1393 68.6725L55.5646 83.1262L67.7814 69.2439L63.8214 65.7592L55.8418 74.8266L53.2093 72.51Z" fill="#FC4F37"/>
<path d="M77.5368 49.9295L74.6498 48.8957L62.0721 44.8361L56.534 49.4371L70.5292 66.2818L75.0751 62.5052L66.352 52.0061L69.0971 52.9628L81.7208 56.984L87.3051 52.3447L73.31 35.5L68.741 39.2958L77.5368 49.9295Z" fill="#FC4F37"/>
<path d="M87.5133 44.9898C91.4926 47.5638 95.7934 47.3142 100.309 44.7193C105.685 41.6294 107.899 37.0239 105.529 32.9001C103.189 28.8285 98.8341 29.769 95.4327 31.3418C94.3809 31.8074 92.9265 32.5391 91.9008 32.9897C90.4947 33.6242 89.6954 33.5627 89.2604 32.8058C88.7504 31.9184 89.3072 30.5915 91.343 29.4215C93.17 28.3716 95.3088 28.0452 97.7043 28.8906L99.4989 23.797C95.8625 22.4842 92.3543 23.1462 88.9091 25.1262C83.8978 28.0061 81.6682 32.3428 83.9033 36.2317C86.1083 40.0684 89.9943 39.6406 93.6567 37.9177C94.8129 37.3922 96.148 36.6944 97.0954 36.2888C98.6881 35.6165 99.7 35.6252 100.21 36.5126C100.69 37.3478 100.6 38.8229 97.9642 40.3378C95.3803 41.8228 92.7594 41.9749 90.5154 40.4869L87.5133 44.9898Z" fill="#FC4F37"/>
<path d="M118.658 35.3325L109.932 15.2462L104.044 17.8039L112.77 37.8902L118.658 35.3325Z" fill="#FC4F37"/>
<path d="M134.749 17.9244C137.39 16.9135 138.758 14.6868 137.931 11.9282C136.906 8.50859 133.803 7.24658 129.664 8.48715L116.704 12.3725L122.994 33.3498L135.868 29.4902C140.639 28.0601 142.533 25.0807 141.516 21.6899C140.551 18.4715 137.968 17.2728 134.775 18.0107L134.749 17.9244ZM128.902 13.8833C130.598 13.375 131.532 13.8781 131.876 15.0275C132.229 16.2057 131.623 17.1078 129.956 17.6075L125.387 18.9773L124.276 15.2703L128.902 13.8833ZM127.714 26.736L126.594 23.0003L131.536 21.5185C133.519 20.9241 134.482 21.4185 134.835 22.5967C135.205 23.8323 134.639 24.6598 132.656 25.2542L127.714 26.736Z" fill="#FC4F37"/>
<path d="M150.494 4.04172L144.137 4.93535L147.184 26.6223L164.504 24.1878L163.774 18.9889L152.811 20.5297L150.494 4.04172Z" fill="#FC4F37"/>
<path d="M174.707 15.2125L183.886 15.3615L183.959 10.8621L174.78 10.7131L174.835 7.35353L186.293 7.53956L186.378 2.29025L168.501 2L168.145 23.8971L186.653 24.1976L186.738 18.9183L174.65 18.722L174.707 15.2125Z" fill="#FC4F37"/>
<path d="M225.006 23.7282L224.92 23.7012L225 9.05847L216.051 6.23272L209.48 27.0375L215.095 28.8104L219.667 14.3325L219.781 14.3685L219.826 30.3043L224.956 31.9241L234.174 18.9131L234.288 18.9491L229.716 33.427L235.815 35.3528L242.385 14.548L233.465 11.7312L225.006 23.7282Z" fill="#FC4F37"/>
<path d="M250.366 33.0883L258.445 37.4026L260.56 33.4426L252.481 29.1284L254.061 26.1716L264.146 31.5574L266.613 26.9375L250.879 18.5345L240.585 37.8061L256.874 46.5052L259.356 41.8589L248.716 36.177L250.366 33.0883Z" fill="#FC4F37"/>
<path d="M262.691 43.1136C261.899 47.7695 263.819 51.6094 267.971 54.7234C272.915 58.4313 278.003 58.6472 280.847 54.8553C283.655 51.1113 281.081 47.4934 278.303 44.9975C277.463 44.2175 276.221 43.1735 275.405 42.4115C274.271 41.3735 274.013 40.6175 274.535 39.9216C275.147 39.1056 276.581 39.0936 278.453 40.4975C280.133 41.7575 281.273 43.5875 281.441 46.1134L286.811 45.7534C286.583 41.9075 284.597 38.9555 281.429 36.5796C276.821 33.1236 271.973 32.7877 269.291 36.3636C266.645 39.8916 268.565 43.2815 271.583 45.9575C272.519 46.8095 273.683 47.7574 274.427 48.4654C275.669 49.6594 276.059 50.5894 275.447 51.4054C274.871 52.1734 273.485 52.6714 271.061 50.8534C268.685 49.0714 267.515 46.7315 267.995 44.0915L262.691 43.1136Z" fill="#FC4F37"/>
<path d="M283.034 58.4411C281.522 62.9362 282.828 67.0449 286.461 70.7817C290.787 75.2312 295.8 76.2392 299.213 72.9213C302.583 69.6453 300.594 65.6548 298.228 62.7454C297.516 61.8406 296.447 60.6113 295.756 59.7281C294.793 58.5215 294.655 57.7313 295.281 57.1223C296.016 56.4083 297.44 56.6201 299.078 58.3049C300.548 59.8169 301.394 61.81 301.166 64.342L306.55 64.8226C306.923 60.9719 305.414 57.7337 302.642 54.8826C298.61 50.7354 293.853 49.6459 290.634 52.7748C287.459 55.8617 288.835 59.5241 291.411 62.6494C292.207 63.6406 293.214 64.7626 293.841 65.581C294.887 66.9592 295.129 67.9425 294.395 68.6565C293.703 69.3285 292.251 69.6063 290.13 67.4247C288.051 65.2864 287.255 62.7826 288.143 60.2387L283.034 58.4411Z" fill="#FC4F37"/>
<path d="M309.338 99.9119L322.32 80.2707L317.737 73.678L294.871 79.1006L298.548 84.3895L302.965 83.2898L308.009 90.5467L305.405 94.254L309.338 99.9119ZM315.055 80.2125L315.158 80.3601L310.904 86.4182L307.86 82.0394L315.055 80.2125Z" fill="#FC4F37"/>
<path d="M322.823 108.927L324.94 113.513C322.632 113.75 320.761 112.064 319.74 109.853C318.354 106.85 319.324 104.216 322.737 102.641C326.368 100.966 329.203 101.942 330.664 105.109C331.773 107.511 331.481 109.534 330.06 111.117L334.09 116.046C337.494 112.587 337.92 107.986 335.639 103.045C332.477 96.1925 326.256 93.7649 319.95 96.6754C314.19 99.334 311.504 104.779 314.213 110.649C315.813 114.116 318.514 115.949 322.466 115.615L322.542 115.779L318.031 118.059L320.425 123.246L331.591 118.093L326.563 107.201L322.823 108.927Z" fill="#FC4F37"/>
<path d="M332.019 131.708L334.46 140.557L338.798 139.361L336.357 130.511L339.596 129.618L342.643 140.665L347.704 139.269L342.95 122.033L321.838 127.856L326.76 145.7L331.85 144.296L328.635 132.641L332.019 131.708Z" fill="#FC4F37"/>
<path d="M24.904 200.393L19.7755 201.649L21.538 208.846L5.395 212.799L6.92208 219.035L23.0651 215.082L24.8277 222.279L29.9562 221.023L24.904 200.393Z" fill="#FC4F37"/>
<path d="M22.8209 248.334C25.8335 246.476 25.8833 244.484 25.3193 242.65L25.4297 242.604C26.1899 244.132 28.3565 246.952 32.6345 245.185C36.3054 243.669 37.5281 240.45 35.6585 235.924L30.6081 223.697L10.46 232.019L12.8997 237.925L19.3857 235.246L20.9362 239C21.7 240.849 21.4786 241.877 19.7254 242.795C18.43 243.492 16.7158 244.426 15.9664 245.35L18.6911 251.946C19.1915 250.576 21.2237 249.317 22.8209 248.334ZM24.0226 233.331L28.1902 231.61L30.1054 236.247C30.7895 237.903 30.3587 239.05 29.1167 239.563C27.5435 240.213 26.4394 239.182 25.8352 237.72L24.0226 233.331Z" fill="#FC4F37"/>
<path d="M34.422 277.641L48.4102 258.614L44.1489 251.78L20.9703 256.068L24.3888 261.55L28.8685 260.67L33.5591 268.192L30.7649 271.776L34.422 277.641ZM41.1351 258.192L41.2305 258.345L36.6659 264.201L33.8357 259.662L41.1351 258.192Z" fill="#FC4F37"/>
<path d="M54.569 288.929L55.5194 286.016L59.2166 273.341L54.4645 267.941L38.0393 282.395L41.9399 286.827L52.1776 277.819L51.3001 280.587L47.6425 293.307L52.4341 298.752L68.8594 284.298L64.9389 279.844L54.569 288.929Z" fill="#FC4F37"/>
<path d="M60.8585 298.669C59.8762 303.288 61.6372 307.204 65.6581 310.485C70.4459 314.393 75.5209 314.817 78.518 311.145C81.4772 307.52 79.0537 303.799 76.3804 301.191C75.5731 300.378 74.3749 299.284 73.5908 298.489C72.5003 297.405 72.2736 296.639 72.8237 295.965C73.4686 295.175 74.9019 295.222 76.7148 296.701C78.3418 298.029 79.4058 299.904 79.47 302.435L84.8504 302.296C84.7803 298.443 82.917 295.413 79.849 292.909C75.3866 289.267 70.5563 288.732 67.7299 292.195C64.9414 295.612 66.7208 299.078 69.6266 301.875C70.5269 302.765 71.651 303.76 72.3654 304.497C73.5574 305.741 73.9089 306.687 73.264 307.477C72.6569 308.22 71.2517 308.661 68.9042 306.745C66.6033 304.867 65.5302 302.482 66.118 299.863L60.8585 298.669Z" fill="#FC4F37"/>
<path d="M100.471 307.487L90.5432 301.644L79.4345 320.517L84.9673 323.774L88.0869 318.474L92.4304 321.03C97.4462 323.982 101.824 323.287 104.441 318.84C106.968 314.548 105.42 310.435 100.456 307.513L100.471 307.487ZM90.7043 314.027L93.3978 309.451L97.1467 311.657C98.8789 312.677 99.811 313.991 98.8219 315.672C97.7871 317.43 96.1854 317.253 94.4273 316.218L90.7043 314.027Z" fill="#FC4F37"/>
<path d="M113.921 338.403C120.648 340.97 126.877 338.531 129.295 332.197C131.723 325.834 128.703 319.865 121.977 317.298C115.25 314.73 109.021 317.17 106.592 323.532C104.175 329.866 107.195 335.835 113.921 338.403ZM115.836 333.386C112.557 332.134 111.436 329.266 112.741 325.847C114.036 322.455 116.793 321.035 120.073 322.287C123.352 323.538 124.462 326.434 123.168 329.826C121.863 333.245 119.116 334.637 115.836 333.386Z" fill="#FC4F37"/>
<path d="M152.614 343.02C152.757 339.466 151.126 338.306 149.28 337.746L149.304 337.628C151.004 337.853 154.571 337.631 155.501 333.074C156.299 329.164 154.304 326.338 149.482 325.354L136.458 322.696L132.078 344.158L138.369 345.442L139.779 338.533L143.778 339.349C145.747 339.751 146.48 340.513 146.26 342.489C146.113 343.96 145.929 345.913 146.278 347.056L153.304 348.49C152.444 347.303 152.536 344.903 152.614 343.02ZM140.787 333.593L141.693 329.154L146.633 330.162C148.397 330.522 149.111 331.525 148.841 332.848C148.499 334.524 147.02 334.865 145.462 334.547L140.787 333.593Z" fill="#FC4F37"/>
<path d="M158.374 326.949L158.116 332.223L165.517 332.585L164.705 349.185L171.117 349.498L171.929 332.898L179.33 333.26L179.588 327.987L158.374 326.949Z" fill="#FC4F37"/>
<path d="M211.686 323.654L200.436 326.132L205.146 347.519L211.416 346.138L210.093 340.132L215.015 339.048C220.699 337.797 223.433 334.307 222.323 329.268C221.252 324.404 217.318 322.445 211.693 323.683L211.686 323.654ZM208.984 335.093L207.841 329.907L212.09 328.972C214.053 328.54 215.63 328.868 216.05 330.772C216.488 332.765 215.195 333.725 213.202 334.164L208.984 335.093Z" fill="#FC4F37"/>
<path d="M247.822 328.943C245.994 325.89 243.992 325.813 242.14 326.356L242.095 326.245C243.641 325.501 246.506 323.359 244.785 319.035C243.309 315.324 240.088 314.052 235.513 315.873L223.153 320.79L231.256 341.157L237.227 338.781L234.618 332.225L238.413 330.715C240.282 329.972 241.313 330.208 242.213 331.983C242.896 333.294 243.813 335.03 244.732 335.796L251.4 333.143C250.029 332.622 248.79 330.562 247.822 328.943ZM232.753 327.538L231.077 323.325L235.764 321.46C237.438 320.794 238.586 321.242 239.086 322.498C239.718 324.088 238.668 325.185 237.189 325.773L232.753 327.538Z" fill="#FC4F37"/>
<path d="M266.801 325.144C272.993 321.472 274.955 315.077 271.497 309.247C268.024 303.39 261.472 302.044 255.28 305.716C249.087 309.388 247.125 315.783 250.599 321.639C254.057 327.47 260.609 328.816 266.801 325.144ZM264.062 320.525C261.043 322.316 258.1 321.41 256.234 318.263C254.382 315.141 254.984 312.099 258.003 310.309C261.022 308.519 263.98 309.45 265.831 312.571C267.698 315.719 267.081 318.735 264.062 320.525Z" fill="#FC4F37"/>
<path d="M266.18 299.247L269.559 303.313L275.265 298.571L285.902 311.368L290.845 307.259L280.208 294.462L285.914 289.72L282.535 285.654L266.18 299.247Z" fill="#FC4F37"/>
<path d="M308.059 290.853C312.811 285.453 312.703 278.771 307.618 274.296C302.51 269.802 295.868 270.544 291.116 275.944C286.364 281.344 286.472 288.026 291.579 292.521C296.664 296.995 303.307 296.253 308.059 290.853ZM304.031 287.309C301.714 289.941 298.638 289.989 295.893 287.574C293.171 285.178 292.804 282.101 295.121 279.468C297.438 276.836 300.536 276.808 303.259 279.204C306.004 281.619 306.348 284.676 304.031 287.309Z" fill="#FC4F37"/>
<path d="M320.015 256.885C322.61 259.074 322.921 261.745 321.378 264.212C319.66 266.959 316.944 267.455 313.688 265.419C310.33 263.319 309.651 260.559 311.321 257.888C312.737 255.624 314.937 254.877 318.079 255.851L319.95 250.086C315.139 248.387 310.076 249.75 306.752 255.066C302.95 261.145 304.38 267.347 310.408 271.116C315.749 274.457 321.922 273.469 325.772 267.314C329.542 261.285 328.179 255.94 323.849 252.17L320.015 256.885Z" fill="#FC4F37"/>
<path d="M339.398 240.806C342.133 234.145 339.85 227.857 333.578 225.283C327.278 222.696 321.235 225.567 318.501 232.227C315.766 238.888 318.049 245.176 324.349 247.762C330.621 250.337 336.664 247.467 339.398 240.806ZM334.43 238.767C333.097 242.014 330.202 243.063 326.816 241.673C323.458 240.294 322.107 237.502 323.44 234.255C324.774 231.008 327.697 229.97 331.055 231.349C334.44 232.739 335.763 235.52 334.43 238.767Z" fill="#FC4F37"/>
<path d="M325.713 211.859L324.237 218.086L345.48 223.123L349.503 206.158L344.41 204.95L341.864 215.688L325.713 211.859Z" fill="#FC4F37"/>
<circle cx="341" cy="176" r="6" fill="#FC4F37"/>
<circle r="6" transform="matrix(-1 0 0 1 11 176)" fill="#FC4F37"/>
</svg>
