<svg width="438" height="438" viewBox="0 0 438 438" fill="none" xmlns="http://www.w3.org/2000/svg">
<path fill-rule="evenodd" clip-rule="evenodd" d="M219 424C332.218 424 424 332.218 424 219C424 105.782 332.218 14 219 14C105.782 14 14 105.782 14 219C14 332.218 105.782 424 219 424ZM219 438C339.95 438 438 339.95 438 219C438 98.0496 339.95 0 219 0C98.0496 0 0 98.0496 0 219C0 339.95 98.0496 438 219 438Z" fill="#31006E"/>
<path d="M99 217.737C99.0013 201.913 102.12 186.245 108.177 171.626C114.235 157.007 123.112 143.724 134.304 132.536C145.495 121.347 158.781 112.473 173.402 106.418C188.024 100.364 203.694 97.2487 219.52 97.25C286.04 97.25 337.43 150.244 339 217.237C339 238.625 331.7 256.623 313.43 273.571C298 287.9 271.7 290 252.43 279.311C238.66 271.362 228.04 254.443 219.04 242.015L202.34 267.572H166.34L200.26 217.237L167.39 167.693H204.39L219.26 193.25L233.87 167.693H271.17L237.26 217.237C237.26 217.237 253.43 242.015 262.26 251.664C271.09 261.313 287.26 261.573 297.74 251.144C309.21 239.675 311.74 230.536 311.83 217.237C311.943 205.056 309.635 192.974 305.04 181.692C300.445 170.41 293.655 160.153 285.063 151.516C276.472 142.879 266.25 136.034 254.992 131.379C243.734 126.723 231.663 124.35 219.48 124.397C206.423 124.529 193.539 127.397 181.659 132.816C169.78 138.235 159.169 146.086 150.512 155.86C141.855 165.634 135.344 177.116 131.401 189.562C127.457 202.009 126.168 215.144 127.616 228.119C129.064 241.095 133.218 253.623 139.809 264.894C146.4 276.164 155.282 285.928 165.881 293.553C176.481 301.179 188.561 306.497 201.344 309.164C214.126 311.831 227.325 311.788 240.09 309.038L246.35 335.375C237.535 337.368 228.518 338.331 219.48 338.245C187.522 338.237 156.876 325.537 134.282 302.938C111.689 280.339 98.9973 249.692 99 217.737Z" fill="#31006E"/>
<path d="M62.3221 181.736L64.6175 172.831L60.2525 171.706L57.9571 180.611L54.6978 179.771L57.5634 168.655L52.4708 167.343L48 184.686L69.2432 190.16L73.8716 172.206L68.7499 170.886L65.7269 182.613L62.3221 181.736Z" fill="#FC4F37"/>
<path d="M70.2445 150.831L63.7563 139.413L60.8758 146.037L65.1285 152.709L57.3233 154.206L54.3588 161.023L67.4588 158.218L74.3118 170.156L77.1682 163.587L72.7836 156.463L80.9729 154.838L83.9493 147.994L70.2445 150.831Z" fill="#FC4F37"/>
<path d="M66.4436 134.861L70.8918 137.706L74.8842 131.464L88.8859 140.418L92.3449 135.009L78.3432 126.055L82.3356 119.812L77.8874 116.968L66.4436 134.861Z" fill="#FC4F37"/>
<path d="M96.2093 115.51L102.268 108.625L98.8931 105.655L92.8342 112.54L90.3142 110.323L97.8779 101.728L93.9404 98.2627L82.1393 111.673L98.5646 126.126L110.781 112.244L106.821 108.759L98.8418 117.827L96.2093 115.51Z" fill="#FC4F37"/>
<path d="M120.537 92.9295L117.65 91.8957L105.072 87.8361L99.534 92.4371L113.529 109.282L118.075 105.505L109.352 95.0061L112.097 95.9628L124.721 99.984L130.305 95.3447L116.31 78.5L111.741 82.2958L120.537 92.9295Z" fill="#FC4F37"/>
<path d="M130.513 87.9898C134.493 90.5638 138.793 90.3142 143.309 87.7193C148.685 84.6294 150.899 80.0239 148.529 75.9001C146.189 71.8285 141.834 72.769 138.433 74.3418C137.381 74.8074 135.926 75.5391 134.901 75.9897C133.495 76.6242 132.695 76.5627 132.26 75.8058C131.75 74.9184 132.307 73.5915 134.343 72.4215C136.17 71.3716 138.309 71.0452 140.704 71.8906L142.499 66.797C138.863 65.4842 135.354 66.1462 131.909 68.1262C126.898 71.0061 124.668 75.3428 126.903 79.2317C129.108 83.0684 132.994 82.6406 136.657 80.9177C137.813 80.3922 139.148 79.6944 140.095 79.2888C141.688 78.6165 142.7 78.6252 143.21 79.5126C143.69 80.3478 143.6 81.8229 140.964 83.3378C138.38 84.8228 135.759 84.9749 133.515 83.4869L130.513 87.9898Z" fill="#FC4F37"/>
<path d="M161.658 78.3325L152.932 58.2462L147.044 60.8039L155.77 80.8902L161.658 78.3325Z" fill="#FC4F37"/>
<path d="M177.749 60.9244C180.39 59.9135 181.758 57.6868 180.931 54.9282C179.906 51.5086 176.803 50.2466 172.664 51.4871L159.704 55.3725L165.994 76.3498L178.868 72.4902C183.639 71.0601 185.533 68.0807 184.516 64.6899C183.551 61.4715 180.968 60.2728 177.775 61.0107L177.749 60.9244ZM171.902 56.8833C173.598 56.375 174.532 56.8781 174.876 58.0275C175.229 59.2057 174.623 60.1078 172.956 60.6075L168.387 61.9773L167.276 58.2703L171.902 56.8833ZM170.714 69.736L169.594 66.0003L174.536 64.5185C176.519 63.9241 177.482 64.4185 177.835 65.5967C178.205 66.8323 177.639 67.6598 175.656 68.2542L170.714 69.736Z" fill="#FC4F37"/>
<path d="M193.494 47.0417L187.137 47.9353L190.184 69.6223L207.504 67.1878L206.774 61.9889L195.811 63.5297L193.494 47.0417Z" fill="#FC4F37"/>
<path d="M217.707 58.2125L226.886 58.3615L226.959 53.8621L217.78 53.7131L217.835 50.3535L229.293 50.5396L229.378 45.2903L211.501 45L211.145 66.8971L229.653 67.1976L229.738 61.9183L217.65 61.722L217.707 58.2125Z" fill="#FC4F37"/>
<path d="M268.006 66.7282L267.92 66.7012L268 52.0585L259.051 49.2327L252.48 70.0375L258.095 71.8104L262.667 57.3325L262.781 57.3685L262.826 73.3043L267.956 74.9241L277.174 61.9131L277.288 61.9491L272.716 76.427L278.815 78.3528L285.385 57.548L276.465 54.7312L268.006 66.7282Z" fill="#FC4F37"/>
<path d="M293.366 76.0883L301.445 80.4026L303.56 76.4426L295.481 72.1284L297.061 69.1716L307.146 74.5574L309.613 69.9375L293.879 61.5345L283.585 80.8061L299.874 89.5052L302.356 84.8589L291.716 79.177L293.366 76.0883Z" fill="#FC4F37"/>
<path d="M305.691 86.1136C304.899 90.7695 306.819 94.6094 310.971 97.7234C315.915 101.431 321.003 101.647 323.847 97.8553C326.655 94.1113 324.081 90.4934 321.303 87.9975C320.463 87.2175 319.221 86.1735 318.405 85.4115C317.271 84.3735 317.013 83.6175 317.535 82.9216C318.147 82.1056 319.581 82.0936 321.453 83.4975C323.133 84.7575 324.273 86.5875 324.441 89.1134L329.811 88.7534C329.583 84.9075 327.597 81.9555 324.429 79.5796C319.821 76.1236 314.973 75.7877 312.291 79.3636C309.645 82.8916 311.565 86.2815 314.583 88.9575C315.519 89.8095 316.683 90.7574 317.427 91.4654C318.669 92.6594 319.059 93.5894 318.447 94.4054C317.871 95.1734 316.485 95.6714 314.061 93.8534C311.685 92.0714 310.515 89.7315 310.995 87.0915L305.691 86.1136Z" fill="#FC4F37"/>
<path d="M326.034 101.441C324.522 105.936 325.828 110.045 329.461 113.782C333.787 118.231 338.8 119.239 342.213 115.921C345.583 112.645 343.594 108.655 341.228 105.745C340.516 104.841 339.447 103.611 338.756 102.728C337.793 101.522 337.655 100.731 338.281 100.122C339.016 99.4083 340.44 99.6201 342.078 101.305C343.548 102.817 344.394 104.81 344.166 107.342L349.55 107.823C349.923 103.972 348.414 100.734 345.642 97.8826C341.61 93.7354 336.853 92.6459 333.634 95.7748C330.459 98.8617 331.835 102.524 334.411 105.649C335.207 106.641 336.214 107.763 336.841 108.581C337.887 109.959 338.129 110.943 337.395 111.657C336.703 112.329 335.251 112.606 333.13 110.425C331.051 108.286 330.255 105.783 331.143 103.239L326.034 101.441Z" fill="#FC4F37"/>
<path d="M352.338 142.912L365.32 123.271L360.737 116.678L337.871 122.101L341.548 127.39L345.965 126.29L351.009 133.547L348.405 137.254L352.338 142.912ZM358.055 123.212L358.158 123.36L353.904 129.418L350.86 125.039L358.055 123.212Z" fill="#FC4F37"/>
<path d="M365.823 151.927L367.94 156.513C365.632 156.75 363.761 155.064 362.74 152.853C361.354 149.85 362.324 147.216 365.737 145.641C369.368 143.966 372.203 144.942 373.664 148.109C374.773 150.511 374.481 152.534 373.06 154.117L377.09 159.046C380.494 155.587 380.92 150.986 378.639 146.045C375.477 139.193 369.256 136.765 362.95 139.675C357.19 142.334 354.504 147.779 357.213 153.649C358.813 157.116 361.514 158.949 365.466 158.615L365.542 158.779L361.031 161.059L363.425 166.246L374.591 161.093L369.563 150.201L365.823 151.927Z" fill="#FC4F37"/>
<path d="M375.019 174.708L377.46 183.557L381.798 182.361L379.357 173.511L382.596 172.618L385.643 183.665L390.704 182.269L385.95 165.033L364.838 170.856L369.76 188.7L374.85 187.296L371.635 175.641L375.019 174.708Z" fill="#FC4F37"/>
<path d="M67.904 243.393L62.7755 244.649L64.538 251.846L48.395 255.799L49.9221 262.035L66.0651 258.082L67.8277 265.279L72.9562 264.023L67.904 243.393Z" fill="#FC4F37"/>
<path d="M65.8209 291.334C68.8335 289.476 68.8833 287.484 68.3193 285.65L68.4297 285.604C69.1899 287.132 71.3565 289.952 75.6345 288.185C79.3054 286.669 80.5281 283.45 78.6585 278.924L73.6081 266.697L53.46 275.019L55.8997 280.925L62.3857 278.246L63.9362 282C64.7 283.849 64.4786 284.877 62.7254 285.795C61.43 286.492 59.7158 287.426 58.9664 288.35L61.6911 294.946C62.1915 293.576 64.2237 292.317 65.8209 291.334ZM67.0226 276.331L71.1902 274.61L73.1054 279.247C73.7895 280.903 73.3587 282.05 72.1167 282.563C70.5435 283.213 69.4394 282.182 68.8352 280.72L67.0226 276.331Z" fill="#FC4F37"/>
<path d="M77.422 320.641L91.4102 301.614L87.1489 294.78L63.9703 299.068L67.3888 304.55L71.8685 303.67L76.5591 311.192L73.7649 314.776L77.422 320.641ZM84.1351 301.192L84.2305 301.345L79.6659 307.201L76.8357 302.662L84.1351 301.192Z" fill="#FC4F37"/>
<path d="M97.569 331.929L98.5194 329.016L102.217 316.341L97.4645 310.941L81.0393 325.395L84.9399 329.827L95.1776 320.819L94.3001 323.587L90.6425 336.307L95.4341 341.752L111.859 327.298L107.939 322.844L97.569 331.929Z" fill="#FC4F37"/>
<path d="M103.859 341.669C102.876 346.288 104.637 350.204 108.658 353.485C113.446 357.393 118.521 357.817 121.518 354.145C124.477 350.52 122.054 346.799 119.38 344.191C118.573 343.378 117.375 342.284 116.591 341.489C115.5 340.405 115.274 339.639 115.824 338.965C116.469 338.175 117.902 338.222 119.715 339.701C121.342 341.029 122.406 342.904 122.47 345.435L127.85 345.296C127.78 341.443 125.917 338.413 122.849 335.909C118.387 332.267 113.556 331.732 110.73 335.195C107.941 338.612 109.721 342.078 112.627 344.875C113.527 345.765 114.651 346.76 115.365 347.497C116.557 348.741 116.909 349.687 116.264 350.477C115.657 351.22 114.252 351.661 111.904 349.745C109.603 347.867 108.53 345.482 109.118 342.863L103.859 341.669Z" fill="#FC4F37"/>
<path d="M143.471 350.487L133.543 344.644L122.434 363.517L127.967 366.774L131.087 361.474L135.43 364.03C140.446 366.982 144.824 366.287 147.441 361.84C149.968 357.548 148.42 353.435 143.456 350.513L143.471 350.487ZM133.704 357.027L136.398 352.451L140.147 354.657C141.879 355.677 142.811 356.991 141.822 358.672C140.787 360.43 139.185 360.253 137.427 359.218L133.704 357.027Z" fill="#FC4F37"/>
<path d="M156.921 381.403C163.648 383.97 169.877 381.531 172.295 375.197C174.723 368.834 171.703 362.865 164.977 360.298C158.25 357.73 152.021 360.17 149.592 366.532C147.175 372.866 150.195 378.835 156.921 381.403ZM158.836 376.386C155.557 375.134 154.436 372.266 155.741 368.847C157.036 365.455 159.793 364.035 163.073 365.287C166.352 366.538 167.462 369.434 166.168 372.826C164.863 376.245 162.116 377.637 158.836 376.386Z" fill="#FC4F37"/>
<path d="M195.614 386.02C195.757 382.466 194.126 381.306 192.28 380.746L192.304 380.628C194.004 380.853 197.571 380.631 198.501 376.074C199.299 372.164 197.304 369.338 192.482 368.354L179.458 365.696L175.078 387.158L181.369 388.442L182.779 381.533L186.778 382.349C188.747 382.751 189.48 383.513 189.26 385.489C189.113 386.96 188.929 388.913 189.278 390.056L196.304 391.49C195.444 390.303 195.536 387.903 195.614 386.02ZM183.787 376.593L184.693 372.154L189.633 373.162C191.397 373.522 192.111 374.525 191.841 375.848C191.499 377.524 190.02 377.865 188.462 377.547L183.787 376.593Z" fill="#FC4F37"/>
<path d="M201.374 369.949L201.116 375.223L208.517 375.585L207.705 392.185L214.117 392.498L214.929 375.898L222.33 376.26L222.588 370.987L201.374 369.949Z" fill="#FC4F37"/>
<path d="M254.686 366.654L243.436 369.132L248.146 390.519L254.416 389.138L253.093 383.132L258.015 382.048C263.699 380.797 266.433 377.307 265.323 372.268C264.252 367.404 260.318 365.445 254.693 366.683L254.686 366.654ZM251.984 378.093L250.841 372.907L255.09 371.972C257.053 371.54 258.63 371.868 259.05 373.772C259.488 375.765 258.195 376.725 256.202 377.164L251.984 378.093Z" fill="#FC4F37"/>
<path d="M290.822 371.943C288.994 368.89 286.992 368.813 285.14 369.356L285.095 369.245C286.641 368.501 289.506 366.359 287.785 362.035C286.309 358.324 283.088 357.052 278.513 358.873L266.153 363.79L274.256 384.157L280.227 381.781L277.618 375.225L281.413 373.715C283.282 372.972 284.313 373.208 285.213 374.983C285.896 376.294 286.813 378.03 287.732 378.796L294.4 376.143C293.029 375.622 291.79 373.562 290.822 371.943ZM275.753 370.538L274.077 366.325L278.764 364.46C280.438 363.794 281.586 364.242 282.086 365.498C282.718 367.088 281.668 368.185 280.189 368.773L275.753 370.538Z" fill="#FC4F37"/>
<path d="M309.801 368.144C315.993 364.472 317.955 358.077 314.497 352.247C311.024 346.39 304.472 345.044 298.28 348.716C292.087 352.388 290.125 358.783 293.599 364.639C297.057 370.47 303.609 371.816 309.801 368.144ZM307.062 363.525C304.043 365.316 301.1 364.41 299.234 361.263C297.382 358.141 297.984 355.099 301.003 353.309C304.022 351.519 306.98 352.45 308.831 355.571C310.698 358.719 310.081 361.735 307.062 363.525Z" fill="#FC4F37"/>
<path d="M309.18 342.247L312.559 346.313L318.265 341.571L328.902 354.368L333.845 350.259L323.208 337.462L328.914 332.72L325.535 328.654L309.18 342.247Z" fill="#FC4F37"/>
<path d="M351.059 333.853C355.811 328.453 355.703 321.771 350.618 317.296C345.51 312.802 338.868 313.544 334.116 318.944C329.364 324.344 329.472 331.026 334.579 335.521C339.664 339.995 346.307 339.253 351.059 333.853ZM347.031 330.309C344.714 332.941 341.638 332.989 338.893 330.574C336.171 328.178 335.804 325.101 338.121 322.468C340.438 319.836 343.536 319.808 346.259 322.204C349.004 324.619 349.348 327.676 347.031 330.309Z" fill="#FC4F37"/>
<path d="M363.015 299.885C365.61 302.074 365.921 304.745 364.378 307.212C362.66 309.959 359.944 310.455 356.688 308.419C353.33 306.319 352.651 303.559 354.321 300.888C355.737 298.624 357.937 297.877 361.079 298.851L362.95 293.086C358.139 291.387 353.076 292.75 349.752 298.066C345.95 304.145 347.38 310.347 353.408 314.116C358.749 317.457 364.922 316.469 368.772 310.314C372.542 304.285 371.179 298.94 366.849 295.17L363.015 299.885Z" fill="#FC4F37"/>
<path d="M382.398 283.806C385.133 277.145 382.85 270.857 376.578 268.283C370.278 265.696 364.235 268.567 361.501 275.227C358.766 281.888 361.049 288.176 367.349 290.762C373.621 293.337 379.664 290.467 382.398 283.806ZM377.43 281.767C376.097 285.014 373.202 286.063 369.816 284.673C366.458 283.294 365.107 280.502 366.44 277.255C367.774 274.008 370.697 272.97 374.055 274.349C377.44 275.739 378.763 278.52 377.43 281.767Z" fill="#FC4F37"/>
<path d="M368.713 254.859L367.237 261.086L388.48 266.123L392.503 249.158L387.41 247.95L384.864 258.688L368.713 254.859Z" fill="#FC4F37"/>
<circle cx="384" cy="219" r="6" fill="#31006E"/>
<circle r="6" transform="matrix(-1 0 0 1 54 219)" fill="#31006E"/>
</svg>
