<svg width="1580" height="188" viewBox="0 0 1580 188" fill="none" xmlns="http://www.w3.org/2000/svg">
<path d="M36.5937 80.2321C36.306 77.5379 35.0934 75.4401 32.956 73.9388C30.839 72.4374 28.085 71.6868 24.6938 71.6868C22.3098 71.6868 20.2648 72.0467 18.5589 72.7665C16.8531 73.4863 15.548 74.4632 14.6437 75.6972C13.7394 76.9312 13.2769 78.34 13.2564 79.9236C13.2564 81.2398 13.5544 82.3813 14.1504 83.3479C14.767 84.3145 15.5994 85.1372 16.6475 85.8159C17.6957 86.474 18.8569 87.0293 20.1312 87.4817C21.4054 87.9342 22.69 88.3147 23.9848 88.6232L29.9039 90.1039C32.288 90.6592 34.5796 91.4099 36.7787 92.356C38.9984 93.302 40.9817 94.4949 42.7287 95.9345C44.4962 97.3742 45.8938 99.112 46.9214 101.148C47.949 103.184 48.4628 105.57 48.4628 108.305C48.4628 112.007 47.5174 115.267 45.6266 118.084C43.7358 120.882 41.0023 123.072 37.4261 124.655C33.8705 126.218 29.5648 127 24.5089 127C19.5968 127 15.3322 126.239 11.7149 124.717C8.11824 123.195 5.30255 120.974 3.26785 118.054C1.2537 115.133 0.16442 111.575 0 107.38H11.2525C11.4169 109.58 12.0952 111.411 13.2872 112.871C14.4792 114.331 16.031 115.421 17.9423 116.141C19.8743 116.861 22.0323 117.221 24.4164 117.221C26.9032 117.221 29.0818 116.851 30.9521 116.11C32.8429 115.349 34.3227 114.3 35.3914 112.963C36.4602 111.606 37.0048 110.022 37.0254 108.213C37.0048 106.567 36.5218 105.21 35.5764 104.14C34.631 103.05 33.3053 102.146 31.5995 101.426C29.9142 100.685 27.9411 100.027 25.6804 99.4514L18.4973 97.6004C13.2975 96.2636 9.18697 94.2378 6.16575 91.523C3.16509 88.7877 1.66475 85.1577 1.66475 80.6331C1.66475 76.9106 2.67183 73.6508 4.68597 70.8538C6.72067 68.0568 9.48498 65.887 12.9789 64.3446C16.4728 62.7815 20.4292 62 24.848 62C29.3284 62 33.254 62.7815 36.6246 64.3446C40.0157 65.887 42.6773 68.0362 44.6092 70.7921C46.5412 73.5274 47.538 76.6741 47.5996 80.2321H36.5937Z" fill="white"/>
<path d="M78.6266 126.044V62.8638H119.691V72.458H90.0641V89.6103H117.563V99.2046H90.0641V116.449H119.937V126.044H78.6266Z" fill="white"/>
<path d="M205.369 84.1808H193.839C193.51 82.2887 192.904 80.6126 192.02 79.1523C191.137 77.6716 190.037 76.417 188.722 75.3887C187.406 74.3604 185.906 73.5891 184.221 73.075C182.556 72.5403 180.758 72.2729 178.826 72.2729C175.393 72.2729 172.352 73.1367 169.7 74.8643C167.049 76.5713 164.973 79.0804 163.473 82.3916C161.973 85.6822 161.222 89.7029 161.222 94.4537C161.222 99.2868 161.973 103.359 163.473 106.67C164.994 109.961 167.07 112.449 169.7 114.136C172.352 115.802 175.383 116.635 178.795 116.635C180.686 116.635 182.453 116.388 184.097 115.894C185.762 115.38 187.252 114.629 188.568 113.642C189.903 112.655 191.024 111.442 191.928 110.002C192.853 108.562 193.49 106.917 193.839 105.066L205.369 105.128C204.938 108.13 204.003 110.948 202.564 113.58C201.146 116.213 199.286 118.537 196.984 120.552C194.682 122.547 191.99 124.11 188.907 125.242C185.824 126.352 182.402 126.907 178.641 126.907C173.092 126.907 168.138 125.622 163.781 123.051C159.424 120.48 155.992 116.768 153.484 111.915C150.977 107.061 149.723 101.241 149.723 94.4537C149.723 87.6463 150.987 81.826 153.515 76.9929C156.043 72.1392 159.486 68.427 163.843 65.8562C168.2 63.2854 173.133 62 178.641 62C182.155 62 185.423 62.4936 188.444 63.4808C191.465 64.468 194.158 65.9179 196.521 67.8306C198.885 69.7227 200.827 72.0467 202.348 74.8026C203.889 77.5379 204.897 80.664 205.369 84.1808Z" fill="white"/>
<path d="M275.61 62.8638H287.048V104.14C287.048 108.665 285.979 112.645 283.842 116.079C281.725 119.514 278.745 122.198 274.901 124.131C271.058 126.044 266.567 127 261.429 127C256.27 127 251.77 126.044 247.926 124.131C244.083 122.198 241.103 119.514 238.986 116.079C236.869 112.645 235.81 108.665 235.81 104.14V62.8638H247.248V103.184C247.248 105.817 247.823 108.161 248.974 110.218C250.146 112.274 251.79 113.889 253.907 115.061C256.024 116.213 258.531 116.789 261.429 116.789C264.327 116.789 266.834 116.213 268.951 115.061C271.089 113.889 272.733 112.274 273.884 110.218C275.035 108.161 275.61 105.817 275.61 103.184V62.8638Z" fill="white"/>
<path d="M319.447 126.044V62.8638H343.123C347.974 62.8638 352.043 63.707 355.331 65.3935C358.64 67.0799 361.138 69.445 362.823 72.4888C364.529 75.5121 365.382 79.0392 365.382 83.0702C365.382 87.1218 364.518 90.6387 362.792 93.6208C361.086 96.5823 358.568 98.8755 355.239 100.5C351.909 102.104 347.82 102.907 342.969 102.907H326.106V93.4048H341.428C344.264 93.4048 346.586 93.0141 348.395 92.2326C350.204 91.4305 351.54 90.2685 352.403 88.7466C353.286 87.2041 353.728 85.312 353.728 83.0702C353.728 80.8285 353.286 78.9158 352.403 77.3322C351.519 75.7281 350.173 74.5146 348.364 73.692C346.556 72.8488 344.223 72.4272 341.366 72.4272H330.884V126.044H319.447ZM352.064 97.4153L367.694 126.044H354.931L339.578 97.4153H352.064Z" fill="white"/>
<path d="M395.877 126.044V62.8638H436.941V72.458H407.314V89.6103H434.814V99.2046H407.314V116.449H437.187V126.044H395.877Z" fill="white"/>
<path d="M489.972 126.044H468.577V62.8638H490.403C496.672 62.8638 502.057 64.1286 506.558 66.6583C511.079 69.1674 514.553 72.7768 516.978 77.4865C519.403 82.1962 520.616 87.8314 520.616 94.392C520.616 100.973 519.393 106.629 516.947 111.359C514.522 116.09 511.018 119.72 506.434 122.249C501.872 124.779 496.384 126.044 489.972 126.044ZM480.014 116.141H489.417C493.815 116.141 497.484 115.339 500.423 113.735C503.362 112.11 505.571 109.693 507.051 106.485C508.531 103.256 509.271 99.2251 509.271 94.392C509.271 89.5589 508.531 85.5485 507.051 82.3607C505.571 79.1524 503.382 76.7564 500.484 75.1728C497.607 73.5686 494.031 72.7665 489.756 72.7665H480.014V116.141Z" fill="white"/>
<path d="M592.951 126.044V62.8638H617.121C621.683 62.8638 625.475 63.5836 628.497 65.0233C631.538 66.4423 633.809 68.3859 635.31 70.8538C636.831 73.3218 637.591 76.1188 637.591 79.2449C637.591 81.8157 637.098 84.0163 636.111 85.8467C635.125 87.6565 633.799 89.127 632.134 90.2582C630.47 91.3893 628.61 92.2017 626.554 92.6953V93.3123C628.795 93.4357 630.942 94.1247 632.998 95.3792C635.073 96.6132 636.769 98.3613 638.084 100.624C639.4 102.886 640.057 105.621 640.057 108.83C640.057 112.1 639.266 115.041 637.684 117.653C636.101 120.244 633.717 122.29 630.531 123.792C627.346 125.293 623.338 126.044 618.508 126.044H592.951ZM604.388 116.48H616.689C620.841 116.48 623.831 115.688 625.66 114.105C627.51 112.501 628.435 110.444 628.435 107.935C628.435 106.063 627.972 104.377 627.048 102.876C626.123 101.354 624.807 100.161 623.101 99.2971C621.396 98.4128 619.361 97.9706 616.997 97.9706H604.388V116.48ZM604.388 89.7337H615.703C617.676 89.7337 619.453 89.3738 621.036 88.654C622.619 87.9136 623.862 86.875 624.766 85.5382C625.691 84.1808 626.154 82.5767 626.154 80.7257C626.154 78.2783 625.29 76.2628 623.564 74.6792C621.858 73.0956 619.32 72.3037 615.949 72.3037H604.388V89.7337Z" fill="white"/>
<path d="M665.658 62.8638H678.576L694.021 90.8135H694.638L710.083 62.8638H723L700.033 102.475V126.044H688.626V102.475L665.658 62.8638Z" fill="white"/>
<path d="M1083.34 92.7077L1128.61 31.842H1093.51L1065.28 72.6176L1036.69 31.842H999.966L1044.59 94.137L997.544 157.861H1032.4L1062.86 114.823L1093.11 157.861H1130.04L1083.34 92.7077Z" fill="white"/>
<path d="M1227.23 119.508H1226.79L1198.21 31.842H1150.32V158.06H1179.94V65.1136H1180.74L1211.98 158.06H1239.78L1270.83 65.1136H1271.66V158.06H1303.3V31.842H1256.02L1227.23 119.508Z" fill="white"/>
<path d="M1324.43 31.6453V58.2071H1368.94L1368.86 157.824H1400.71L1400.78 58.2071H1445.13V31.6453H1324.43Z" fill="white"/>
<path d="M1528.73 31.6435H1465.84V157.822H1497.69V118.475H1528.14C1560.46 118.475 1579.87 102.951 1579.87 74.4441C1579.87 45.9368 1560.42 31.8023 1528.77 31.8023V31.6038L1528.73 31.6435ZM1497.65 92.3107V58.245H1525.64C1538.94 58.245 1547.75 62.6918 1547.75 75.4764C1547.75 88.261 1539.02 92.1122 1525.04 92.1122L1497.65 92.3107Z" fill="white"/>
<path d="M780 93.7404C780 41.9668 821.967 0 873.742 0C925.516 0 965.459 41.1727 966.689 93.3433C966.689 109.979 961.012 123.995 946.798 137.176C934.807 148.333 914.319 149.961 899.311 141.623C888.591 135.429 880.333 122.287 873.345 112.6L860.361 132.491H832.37L858.734 93.3433L833.164 54.7911H861.989L873.543 74.6826L884.899 54.7911H913.922L887.559 93.3433C887.559 93.3433 900.145 112.6 907.054 120.104C913.962 127.608 926.548 127.806 934.648 119.707C943.581 110.773 945.567 103.666 945.606 93.3433C945.765 53.2823 913.922 21.1224 873.781 21.1224C833.64 21.1224 801.083 53.6397 801.083 93.7404C801.083 133.841 833.601 166.358 873.742 166.358C879.3 166.358 884.621 165.882 889.782 164.731L894.229 185.218C886.884 186.885 880.928 187.441 873.742 187.441C821.967 187.441 780 145.474 780 93.7007V93.7404Z" fill="#FA4F37"/>
</svg>
