<svg fill="none" height="248" viewBox="0 0 800 248" width="800" xmlns="http://www.w3.org/2000/svg"><g fill="#fff"><path d="m251.1 14.5699c-.23-2.153-1.2-3.8294-2.909-5.02922-1.693-1.19978-3.895-1.79966-6.607-1.79966-1.907 0-3.542.28761-4.906.86285-1.364.57523-2.408 1.35591-3.131 2.34203-.723.9861-1.093 2.1119-1.109 3.3774 0 1.0519.238 1.9641.714 2.7365.494.7725 1.159 1.4299 1.997 1.9723.839.5259 1.767.9696 2.786 1.3312s2.046.6656 3.082.9122l4.733 1.1833c1.907.4438 3.739 1.0436 5.498 1.7997 1.775.756 3.361 1.7092 4.758 2.8597 1.413 1.1505 2.531 2.5393 3.353 4.1664.821 1.627 1.232 3.5335 1.232 5.7194 0 2.9584-.756 5.5634-2.268 7.815-1.512 2.2352-3.698 3.9856-6.558 5.2511-2.843 1.2491-6.286 1.8736-10.329 1.8736-3.928 0-7.338-.6081-10.231-1.8243-2.876-1.2162-5.128-2.9912-6.755-5.3251-1.611-2.3338-2.482-5.1771-2.613-8.5299h8.998c.132 1.7586.674 3.2214 1.627 4.3883s2.194 2.0379 3.723 2.6132c1.545.5752 3.27.8628 5.177.8628 1.989 0 3.731-.2958 5.226-.8875 1.512-.6081 2.696-1.4463 3.55-2.5146.855-1.0847 1.291-2.3502 1.307-3.7965-.016-1.3149-.403-2.3996-1.159-3.2542-.756-.8711-1.816-1.5942-3.18-2.1695-1.348-.5916-2.925-1.1176-4.733-1.5778l-5.744-1.4791c-4.159-1.0683-7.446-2.6872-9.862-4.8567-2.399-2.1859-3.599-5.0867-3.599-8.7024 0-2.9748.805-5.57982 2.416-7.81501 1.627-2.2352 3.838-3.96912 6.632-5.20177 2.794-1.24908 5.957-1.87362 9.491-1.87362 3.583 0 6.722.62454 9.417 1.87362 2.712 1.23265 4.841 2.95013 6.386 5.15246 1.544 2.18589 2.342 4.70052 2.391 7.54382z"/><path d="m284.712 51.1795v-50.489218h32.838v7.667058h-23.691v13.70706h21.99v7.667h-21.99v13.781h23.888v7.6671z"/><path d="m386.065 17.7254h-9.22c-.263-1.512-.748-2.8515-1.455-4.0184-.707-1.1833-1.586-2.1859-2.638-3.0076-1.052-.8218-2.251-1.43812-3.599-1.849-1.331-.42732-2.769-.64098-4.314-.64098-2.745 0-5.177.69028-7.298 2.07088-2.12 1.3641-3.78 3.3692-4.979 6.0153-1.2 2.6296-1.8 5.8427-1.8 9.6393 0 3.8623.6 7.1164 1.8 9.7625 1.216 2.6297 2.876 4.6183 4.979 5.966 2.121 1.3313 4.545 1.9969 7.273 1.9969 1.512 0 2.926-.1972 4.24-.5917 1.332-.4108 2.523-1.0107 3.575-1.7996 1.068-.7889 1.964-1.7586 2.687-2.9091.74-1.1504 1.249-2.4653 1.529-3.9444l9.22.0493c-.345 2.3995-1.093 4.6512-2.243 6.7549-1.135 2.1037-2.622 3.9609-4.463 5.5715-1.84 1.5943-3.993 2.8433-6.459 3.7473-2.465.8875-5.202 1.3312-8.209 1.3312-4.438 0-8.399-1.0272-11.883-3.0816s-6.229-5.021-8.234-8.8997-3.008-8.5299-3.008-13.9535c0-5.4401 1.011-10.0913 3.033-13.9536 2.021-3.87871 4.774-6.84528 8.258-8.89969 3.485-2.05441 7.429-3.08161 11.834-3.08161 2.81 0 5.423.394446 7.839 1.18334 2.416.78889 4.569 1.94758 6.46 3.47606 1.89 1.51205 3.443 3.36923 4.659 5.5716 1.233 2.1859 2.038 4.684 2.416 7.4944z"/><path d="m442.235.690282h9.146v32.985618c0 3.6157-.855 6.796-2.564 9.5407-1.693 2.7447-4.076 4.8895-7.149 6.4344-3.074 1.5285-6.665 2.2927-10.773 2.2927-4.126 0-7.725-.7642-10.798-2.2927-3.074-1.5449-5.457-3.6897-7.15-6.4344s-2.539-5.925-2.539-9.5407v-32.985618h9.146v32.221318c0 2.1038.46 3.9774 1.381 5.6209.937 1.6435 2.251 2.9337 3.944 3.8705 1.693.9204 3.698 1.3806 6.016 1.3806 2.317 0 4.322-.4602 6.015-1.3806 1.709-.9368 3.024-2.227 3.944-3.8705.921-1.6435 1.381-3.5171 1.381-5.6209z"/><path d="m477.29 51.1795v-50.489218h18.933c3.879 0 7.133.673848 9.763 2.021538 2.646 1.34769 4.643 3.23775 5.99 5.67017 1.364 2.41601 2.046 5.23461 2.046 8.45591 0 3.2378-.69 6.0482-2.07 8.4313-1.365 2.3667-3.378 4.1993-6.04 5.4976-2.663 1.282-5.933 1.923-9.812 1.923h-13.485v-7.5931h12.252c2.268 0 4.125-.3123 5.572-.9368 1.446-.641 2.514-1.5696 3.205-2.7858.706-1.2327 1.06-2.7447 1.06-4.5362 0-1.7914-.354-3.3199-1.06-4.5854-.707-1.282-1.784-2.2516-3.23-2.90905-1.446-.67384-3.312-1.01076-5.596-1.01076h-8.382v42.84681zm26.082-22.878 12.499 22.878h-10.206l-12.277-22.878z"/><path d="m538.409 51.1795v-50.489218h32.837v7.667058h-23.691v13.70706h21.99v7.667h-21.99v13.781h23.889v7.6671z"/><path d="m613.654 51.1795h-17.109v-50.489218h17.454c5.013 0 9.319 1.010768 12.918 3.032308 3.616 2.0051 6.393 4.88949 8.333 8.65321 1.939 3.7636 2.909 8.2669 2.909 13.5098 0 5.2593-.978 9.779-2.934 13.5591-1.939 3.7801-4.742 6.6809-8.407 8.7024-3.648 2.0216-8.036 3.0324-13.164 3.0324zm-7.963-7.9136h7.519c3.517 0 6.451-.641 8.801-1.923 2.35-1.2983 4.117-3.2295 5.3-5.7934 1.184-2.5803 1.775-5.8016 1.775-9.6639s-.591-7.0672-1.775-9.6147c-1.183-2.5639-2.933-4.4786-5.251-5.7441-2.301-1.28195-5.16-1.92293-8.579-1.92293h-7.79z"/><path d="m696.003 51.1795v-50.489218h19.328c3.649 0 6.681.575238 9.097 1.725708 2.433 1.13403 4.249 2.68716 5.448 4.6594 1.217 1.97223 1.825 4.20741 1.825 6.70561 0 2.0544-.395 3.813-1.184 5.2757-.788 1.4463-1.848 2.6214-3.18 3.5254-1.331.9039-2.818 1.5531-4.462 1.9476v.493c1.791.0986 3.509.6492 5.153 1.6518 1.659.9861 3.015 2.3831 4.067 4.191 1.052 1.8078 1.578 3.9937 1.578 6.5576 0 2.6132-.633 4.9635-1.898 7.0508-1.266 2.0708-3.172 3.7061-5.72 4.9059-2.547 1.1998-5.752 1.7997-9.614 1.7997zm9.147-7.6424h9.836c3.32 0 5.711-.6328 7.174-1.8983 1.479-1.282 2.219-2.9255 2.219-4.9306 0-1.4956-.37-2.8433-1.11-4.0431-.739-1.2162-1.791-2.1694-3.155-2.8597-1.364-.7067-2.991-1.0601-4.881-1.0601h-10.083zm0-21.3741h9.047c1.578 0 3-.2876 4.265-.8629 1.266-.5917 2.26-1.4216 2.983-2.4899.74-1.0848 1.11-2.3667 1.11-3.8459 0-1.9558-.691-3.5664-2.071-4.832-1.364-1.26547-3.394-1.89823-6.09-1.89823h-9.244z"/><path d="m754.146.690282h10.329l12.351 22.335518h.493l12.351-22.335518h10.33l-18.366 31.654318v18.8349h-9.122v-18.8349z"/><path d="m303.345 153.035 45.263-60.8659h-35.099l-28.23 40.7759-28.587-40.7759h-36.726l44.627 62.2949-47.049 63.725h34.86l30.453-43.039 30.255 43.039h36.925z"/><path d="m447.23 179.835h-.436l-28.587-87.6659h-47.884v126.2179h29.62v-92.946h.794l31.247 92.946h27.793l31.049-92.946h.833v92.946h31.645v-126.2179h-47.288z"/><path d="m544.433 91.9725v26.5615h44.509l-.08 99.617h31.843l.079-99.617h44.35v-26.5615z"/><path d="m748.734 91.9707h-62.891v126.1783h31.842v-39.346h30.454c32.319 0 51.734-15.525 51.734-44.032s-19.455-42.6415-51.099-42.6415v-.1985zm-31.088 60.6673v-34.066h27.991c13.301 0 22.116 4.447 22.116 17.232 0 12.784-8.735 16.635-22.711 16.635z"/></g><path d="m0 154.068c0-51.774 41.9674-93.7409 93.7417-93.7409s91.7173 41.1729 92.9473 93.3429c0 16.636-5.677 30.652-19.891 43.833-11.991 11.157-32.479 12.785-47.487 4.447-10.72-6.194-18.978-19.336-25.9663-29.023l-12.9833 19.891h-27.9915l26.3636-39.148-25.5695-38.552h28.8252l11.554 19.892 11.3558-19.892h29.023l-26.363 38.552s12.586 19.257 19.495 26.761c6.908 7.504 19.494 7.702 27.594-.397 8.933-8.934 10.919-16.041 10.958-26.364.159-40.061-31.684-72.2205-71.8246-72.2205-40.141 0-72.6984 32.5175-72.6984 72.6185 0 40.1 32.5177 72.618 72.6587 72.618 5.5586 0 10.8793-.477 16.0403-1.628l4.447 20.487c-7.345 1.667-13.301 2.223-20.4873 2.223-51.7743 0-93.7417-41.967-93.7417-93.74z" fill="#fa4f37"/></svg>