<svg width="564" height="564" viewBox="0 0 564 564" fill="none" xmlns="http://www.w3.org/2000/svg">
<path fill-rule="evenodd" clip-rule="evenodd" d="M282 564C437.744 564 564 437.744 564 282C564 126.256 437.744 0 282 0C126.256 0 0 126.256 0 282C0 437.744 126.256 564 282 564ZM282 51C154.422 51 51 154.422 51 282C51 409.578 154.422 513 282 513C299.778 513 314.401 511.558 332.5 507.5L321.5 457C308.781 459.851 295.674 461 282 461C183.141 461 103 380.859 103 282C103 183.141 183.141 103 282 103C380.941 103 459.343 182.294 459 281C458.912 306.502 453.989 324.011 432 346C412 366 381 365.5 364 347C347 328.5 316 281 316 281L381 186H309.5L281.5 235L253 186H182L245 280.997L180 377.5H249L281 328.5C283.425 331.85 285.911 335.37 288.466 338.988C304.088 361.108 322.309 386.909 345.003 400C382 420.5 432.424 416.464 462 389C497 356.5 511 322 511 281C508 152.5 409.495 51 282 51Z" fill="black"/>
</svg>
